<mxfile host="Electron" agent="Mozilla/5.0 (Windows NT 10.0; Win64; x64) AppleWebKit/537.36 (KHTML, like Gecko) draw.io/28.0.4 Chrome/138.0.7204.97 Electron/37.2.1 Safari/537.36" version="28.0.4">
  <diagram name="Diagrama de Clases Consolidado - NuvÃ©a" id="0">
    <mxGraphModel dx="369" dy="327" grid="1" gridSize="10" guides="1" tooltips="1" connect="1" arrows="1" fold="1" page="1" pageScale="1" pageWidth="850" pageHeight="1100" math="0" shadow="0">
      <root>
        <mxCell id="0" />
        <mxCell id="1" parent="0" />
        <mxCell id="10" value="&lt;span style=&quot;font-weight: normal;&quot;&gt;Producto&lt;/span&gt;" style="swimlane;html=1;" parent="1" vertex="1">
          <mxGeometry x="70" y="70" width="220" height="260" as="geometry" />
        </mxCell>
        <mxCell id="YsLwNjtkv6gmY2g29hzc-104" value="&lt;span style=&quot;text-wrap-mode: nowrap;&quot;&gt;idProducto: int&lt;/span&gt;&lt;br style=&quot;text-wrap-mode: nowrap;&quot;&gt;&lt;span style=&quot;text-wrap-mode: nowrap;&quot;&gt;nombre: string&lt;/span&gt;&lt;br style=&quot;text-wrap-mode: nowrap;&quot;&gt;&lt;span style=&quot;text-wrap-mode: nowrap;&quot;&gt;categoria: string&lt;/span&gt;&lt;div&gt;cantidadStock: int&lt;br style=&quot;text-wrap-mode: nowrap;&quot;&gt;&lt;span style=&quot;text-wrap-mode: nowrap;&quot;&gt;precioVenta: float&lt;/span&gt;&lt;br style=&quot;text-wrap-mode: nowrap;&quot;&gt;&lt;span style=&quot;text-wrap-mode: nowrap;&quot;&gt;codigoBarras: int&lt;/span&gt;&lt;/div&gt;&lt;div&gt;fechaIngreso: date&lt;br style=&quot;text-wrap-mode: nowrap;&quot;&gt;&lt;span style=&quot;text-wrap-mode: nowrap;&quot;&gt;estado: string&lt;/span&gt;&lt;/div&gt;" style="text;html=1;align=left;verticalAlign=middle;whiteSpace=wrap;rounded=0;" vertex="1" parent="10">
          <mxGeometry x="10" y="30" width="120" height="110" as="geometry" />
        </mxCell>
        <mxCell id="YsLwNjtkv6gmY2g29hzc-121" value="" style="swimlane;html=1;startSize=0;" vertex="1" parent="10">
          <mxGeometry y="150" width="220" height="110" as="geometry" />
        </mxCell>
        <mxCell id="YsLwNjtkv6gmY2g29hzc-123" value="&lt;span style=&quot;text-wrap-mode: nowrap;&quot;&gt;agregarProducto(): void&lt;/span&gt;&lt;br style=&quot;text-wrap-mode: nowrap;&quot;&gt;&lt;span style=&quot;text-wrap-mode: nowrap;&quot;&gt;eliminarProducto(): void&lt;/span&gt;&lt;div&gt;&lt;span style=&quot;text-wrap-mode: nowrap;&quot;&gt;ActualizarStock(): void&lt;/span&gt;&lt;/div&gt;&lt;div&gt;&lt;span style=&quot;text-wrap-mode: nowrap;&quot;&gt;mostrarInformacion(): void&lt;/span&gt;&lt;/div&gt;&lt;div&gt;&lt;span style=&quot;text-wrap-mode: nowrap;&quot;&gt;ActualizarPrecioProduto():void&lt;/span&gt;&lt;/div&gt;&lt;div&gt;&lt;span style=&quot;text-wrap-mode: nowrap;&quot;&gt;generarCodigoBarras&lt;/span&gt;&lt;/div&gt;&lt;div&gt;&lt;span style=&quot;text-wrap-mode: nowrap;&quot;&gt;calcularDiasEnInventario():void&lt;/span&gt;&lt;/div&gt;" style="text;html=1;align=left;verticalAlign=middle;whiteSpace=wrap;rounded=0;" vertex="1" parent="YsLwNjtkv6gmY2g29hzc-121">
          <mxGeometry x="10" y="10" width="200" height="90" as="geometry" />
        </mxCell>
        <mxCell id="11" value="&lt;span style=&quot;font-weight: normal;&quot;&gt;Proveedor&lt;/span&gt;" style="swimlane;html=1;" parent="1" vertex="1">
          <mxGeometry x="510" y="50" width="240" height="180" as="geometry" />
        </mxCell>
        <mxCell id="YsLwNjtkv6gmY2g29hzc-129" value="&lt;p style=&quot;margin-bottom:0cm;margin-bottom:.0001pt;line-height:&lt;br/&gt;normal&quot; class=&quot;MsoNormal&quot;&gt;&lt;/p&gt;&lt;div style=&quot;text-align: left;&quot;&gt;&lt;span style=&quot;font-family: Helvetica, sans-serif; font-size: 9pt; background-color: transparent; color: light-dark(rgb(0, 0, 0), rgb(255, 255, 255));&quot;&gt;idProveedor: int&lt;/span&gt;&lt;/div&gt;&lt;span style=&quot;font-size: 9pt; font-family: Helvetica, sans-serif;&quot;&gt;&lt;div style=&quot;text-align: left;&quot;&gt;&lt;span style=&quot;font-size: 9pt; background-color: transparent; color: light-dark(rgb(0, 0, 0), rgb(255, 255, 255));&quot;&gt;nombre: string&lt;/span&gt;&lt;/div&gt;&lt;span style=&quot;background-image: initial; background-position: initial; background-size: initial; background-repeat: initial; background-attachment: initial; background-origin: initial; background-clip: initial;&quot;&gt;&lt;div style=&quot;text-align: left;&quot;&gt;&lt;span style=&quot;font-size: 9pt; background-color: transparent; color: light-dark(rgb(0, 0, 0), rgb(255, 255, 255));&quot;&gt;telefono: string&lt;/span&gt;&lt;/div&gt;&lt;/span&gt;&lt;span style=&quot;background-image: initial; background-position: initial; background-size: initial; background-repeat: initial; background-attachment: initial; background-origin: initial; background-clip: initial;&quot;&gt;&lt;div style=&quot;text-align: left;&quot;&gt;&lt;span style=&quot;font-size: 9pt; background-color: transparent; color: light-dark(rgb(0, 0, 0), rgb(255, 255, 255));&quot;&gt;direccion: string&lt;/span&gt;&lt;/div&gt;&lt;div style=&quot;text-align: left;&quot;&gt;&lt;span style=&quot;font-size: 9pt; background-color: transparent; color: light-dark(rgb(0, 0, 0), rgb(255, 255, 255));&quot;&gt;categoria: string&lt;/span&gt;&lt;/div&gt;&lt;div style=&quot;text-align: left;&quot;&gt;&lt;span style=&quot;font-size: 9pt; background-color: transparent; color: light-dark(rgb(0, 0, 0), rgb(255, 255, 255));&quot;&gt;tipoProveedor: string&lt;/span&gt;&lt;/div&gt;&lt;/span&gt;&lt;/span&gt;&lt;p&gt;&lt;/p&gt;" style="text;html=1;align=center;verticalAlign=middle;whiteSpace=wrap;rounded=0;" vertex="1" parent="11">
          <mxGeometry x="10" y="40" width="170" height="100" as="geometry" />
        </mxCell>
        <mxCell id="12" value="&lt;span style=&quot;font-weight: normal;&quot;&gt;Factura&lt;/span&gt;" style="swimlane;html=1;" parent="1" vertex="1">
          <mxGeometry x="70" y="380" width="240" height="140" as="geometry" />
        </mxCell>
        <mxCell id="YsLwNjtkv6gmY2g29hzc-126" value="&lt;p style=&quot;margin-bottom:0cm;margin-bottom:.0001pt;line-height:&lt;br/&gt;normal&quot; class=&quot;MsoNormal&quot;&gt;&lt;/p&gt;&lt;div style=&quot;text-align: left;&quot;&gt;&lt;span style=&quot;font-family: Helvetica, sans-serif; font-size: 9pt; background-color: transparent; color: light-dark(rgb(0, 0, 0), rgb(255, 255, 255));&quot;&gt;idFactura: int&lt;/span&gt;&lt;/div&gt;&lt;span style=&quot;font-size: 9pt; font-family: Helvetica, sans-serif;&quot;&gt;&lt;div style=&quot;text-align: left;&quot;&gt;&lt;span style=&quot;font-size: 9pt; background-color: transparent; color: light-dark(rgb(0, 0, 0), rgb(255, 255, 255));&quot;&gt;fechaEmision: date&lt;/span&gt;&lt;/div&gt;&lt;span style=&quot;background-image: initial; background-position: initial; background-size: initial; background-repeat: initial; background-attachment: initial; background-origin: initial; background-clip: initial;&quot;&gt;&lt;div style=&quot;text-align: left;&quot;&gt;&lt;span style=&quot;font-size: 9pt; background-color: transparent; color: light-dark(rgb(0, 0, 0), rgb(255, 255, 255));&quot;&gt;montoTotal: float&lt;/span&gt;&lt;/div&gt;&lt;div style=&quot;text-align: left;&quot;&gt;&lt;span style=&quot;font-size: 9pt; background-color: transparent; color: light-dark(rgb(0, 0, 0), rgb(255, 255, 255));&quot;&gt;ivaAplicado: float&lt;/span&gt;&lt;/div&gt;&lt;div style=&quot;text-align: left;&quot;&gt;&lt;span style=&quot;font-size: 9pt; background-color: transparent; color: light-dark(rgb(0, 0, 0), rgb(255, 255, 255));&quot;&gt;estado: string&lt;/span&gt;&lt;/div&gt;&lt;/span&gt;&lt;/span&gt;&lt;p&gt;&lt;/p&gt;" style="text;html=1;align=center;verticalAlign=middle;whiteSpace=wrap;rounded=0;" vertex="1" parent="12">
          <mxGeometry x="10" y="30" width="150" height="80" as="geometry" />
        </mxCell>
        <mxCell id="13" value="&lt;span style=&quot;font-weight: normal;&quot;&gt;DetalleFactura&lt;/span&gt;" style="swimlane;html=1;" parent="1" vertex="1">
          <mxGeometry x="540" y="390" width="240" height="140" as="geometry" />
        </mxCell>
        <mxCell id="YsLwNjtkv6gmY2g29hzc-132" value="&lt;p style=&quot;margin-bottom:0cm;margin-bottom:.0001pt;line-height:&lt;br/&gt;normal&quot; class=&quot;MsoNormal&quot;&gt;&lt;/p&gt;&lt;div style=&quot;text-align: left;&quot;&gt;&lt;span style=&quot;font-family: Helvetica, sans-serif; font-size: 9pt; background-color: transparent; color: light-dark(rgb(0, 0, 0), rgb(255, 255, 255));&quot;&gt;id_Factua: int&lt;/span&gt;&lt;/div&gt;&lt;div style=&quot;text-align: left;&quot;&gt;&lt;span style=&quot;font-family: Helvetica, sans-serif; font-size: 9pt; background-color: transparent; color: light-dark(rgb(0, 0, 0), rgb(255, 255, 255));&quot;&gt;id_Usuario: int&lt;/span&gt;&lt;/div&gt;&lt;span style=&quot;font-size: 9pt; font-family: Helvetica, sans-serif;&quot;&gt;&lt;div style=&quot;text-align: left;&quot;&gt;&lt;span style=&quot;font-size: 9pt; background-color: transparent; color: light-dark(rgb(0, 0, 0), rgb(255, 255, 255));&quot;&gt;cantidad: int&lt;/span&gt;&lt;/div&gt;&lt;div style=&quot;text-align: left;&quot;&gt;&lt;span style=&quot;font-size: 9pt; background-color: transparent; color: light-dark(rgb(0, 0, 0), rgb(255, 255, 255));&quot;&gt;precioUnitario: float&lt;/span&gt;&lt;/div&gt;&lt;span style=&quot;background-image: initial; background-position: initial; background-size: initial; background-repeat: initial; background-attachment: initial; background-origin: initial; background-clip: initial;&quot;&gt;&lt;div style=&quot;text-align: left;&quot;&gt;&lt;span style=&quot;font-size: 9pt; background-color: transparent; color: light-dark(rgb(0, 0, 0), rgb(255, 255, 255));&quot;&gt;subtotal: float&lt;/span&gt;&lt;/div&gt;&lt;/span&gt;&lt;/span&gt;&lt;span style=&quot;font-size:12.0pt;font-family:&amp;quot;Times New Roman&amp;quot;,serif;mso-fareast-font-family:&lt;br/&gt;&amp;quot;Times New Roman&amp;quot;;mso-fareast-language:ES-SV&quot;&gt;&lt;/span&gt;&lt;p&gt;&lt;/p&gt;" style="text;html=1;align=center;verticalAlign=middle;whiteSpace=wrap;rounded=0;" vertex="1" parent="13">
          <mxGeometry x="10" y="35" width="170" height="85" as="geometry" />
        </mxCell>
        <mxCell id="14" value="&lt;span style=&quot;font-weight: normal;&quot;&gt;Usuario&lt;/span&gt;" style="swimlane;html=1;" parent="1" vertex="1">
          <mxGeometry x="120" y="730" width="280" height="270" as="geometry" />
        </mxCell>
        <mxCell id="YsLwNjtkv6gmY2g29hzc-133" value="" style="swimlane;html=1;startSize=0;" vertex="1" parent="14">
          <mxGeometry y="150" width="280" height="120" as="geometry" />
        </mxCell>
        <mxCell id="YsLwNjtkv6gmY2g29hzc-139" value="&lt;p style=&quot;margin-bottom:0cm;margin-bottom:.0001pt;line-height:&lt;br/&gt;normal&quot; class=&quot;MsoNormal&quot;&gt;&lt;/p&gt;&lt;div style=&quot;text-align: left;&quot;&gt;&lt;span style=&quot;font-size: 9pt; background-image: initial; background-position: initial; background-size: initial; background-repeat: initial; background-attachment: initial; background-origin: initial; background-clip: initial; line-height: 12.84px; font-family: Helvetica, sans-serif;&quot;&gt;iniciarSesion(): void&lt;/span&gt;&lt;span style=&quot;font-size: 9pt; line-height: 12.84px; font-family: Helvetica, sans-serif;&quot;&gt;&lt;br&gt;&lt;span style=&quot;background-image: initial; background-position: initial; background-size: initial; background-repeat: initial; background-attachment: initial; background-origin: initial; background-clip: initial;&quot;&gt;cerrarSesion(): void&lt;/span&gt;&lt;/span&gt;&lt;/div&gt;&lt;div style=&quot;text-align: left;&quot;&gt;&lt;span style=&quot;font-size: 9pt; line-height: 12.84px; font-family: Helvetica, sans-serif;&quot;&gt;&lt;span style=&quot;background-image: initial; background-position: initial; background-size: initial; background-repeat: initial; background-attachment: initial; background-origin: initial; background-clip: initial;&quot;&gt;cambiarContraseÃ±a(): void&lt;/span&gt;&lt;/span&gt;&lt;/div&gt;&lt;div style=&quot;text-align: left;&quot;&gt;&lt;span style=&quot;font-size: 9pt; line-height: 12.84px; font-family: Helvetica, sans-serif;&quot;&gt;&lt;span style=&quot;background-image: initial; background-position: initial; background-size: initial; background-repeat: initial; background-attachment: initial; background-origin: initial; background-clip: initial;&quot;&gt;ValidarContraseÃ±a(): void&lt;/span&gt;&lt;/span&gt;&lt;/div&gt;&lt;div style=&quot;text-align: left;&quot;&gt;&lt;span style=&quot;font-size: 9pt; line-height: 12.84px; font-family: Helvetica, sans-serif;&quot;&gt;&lt;span style=&quot;background-image: initial; background-position: initial; background-size: initial; background-repeat: initial; background-attachment: initial; background-origin: initial; background-clip: initial;&quot;&gt;mostrarInformacion(): void&lt;/span&gt;&lt;/span&gt;&lt;/div&gt;&lt;p&gt;&lt;/p&gt;" style="text;html=1;align=center;verticalAlign=middle;whiteSpace=wrap;rounded=0;" vertex="1" parent="YsLwNjtkv6gmY2g29hzc-133">
          <mxGeometry x="20" y="10" width="170" height="80" as="geometry" />
        </mxCell>
        <mxCell id="YsLwNjtkv6gmY2g29hzc-137" value="&lt;p style=&quot;margin-bottom:0cm;margin-bottom:.0001pt;line-height:&lt;br/&gt;normal&quot; class=&quot;MsoNormal&quot;&gt;&lt;/p&gt;&lt;div style=&quot;text-align: left;&quot;&gt;&lt;span style=&quot;font-family: Helvetica, sans-serif; font-size: 9pt; background-color: transparent; color: light-dark(rgb(0, 0, 0), rgb(255, 255, 255));&quot;&gt;idUsuario: int&lt;/span&gt;&lt;/div&gt;&lt;span style=&quot;font-size: 9pt; font-family: Helvetica, sans-serif;&quot;&gt;&lt;div style=&quot;text-align: left;&quot;&gt;&lt;span style=&quot;font-size: 9pt; background-color: transparent; color: light-dark(rgb(0, 0, 0), rgb(255, 255, 255));&quot;&gt;nombre: string&lt;/span&gt;&lt;/div&gt;&lt;span style=&quot;background-image: initial; background-position: initial; background-size: initial; background-repeat: initial; background-attachment: initial; background-origin: initial; background-clip: initial;&quot;&gt;&lt;div style=&quot;text-align: left;&quot;&gt;&lt;span style=&quot;font-size: 9pt; background-color: transparent; color: light-dark(rgb(0, 0, 0), rgb(255, 255, 255));&quot;&gt;contraseÃ±a: string&lt;/span&gt;&lt;/div&gt;&lt;div style=&quot;text-align: left;&quot;&gt;&lt;span style=&quot;font-size: 9pt; background-color: transparent; color: light-dark(rgb(0, 0, 0), rgb(255, 255, 255));&quot;&gt;telefono: string&lt;/span&gt;&lt;/div&gt;&lt;div style=&quot;text-align: left;&quot;&gt;&lt;span style=&quot;font-size: 9pt; background-color: transparent; color: light-dark(rgb(0, 0, 0), rgb(255, 255, 255));&quot;&gt;direccion: string&lt;/span&gt;&lt;/div&gt;&lt;/span&gt;&lt;/span&gt;&lt;span style=&quot;font-size:12.0pt;font-family:&amp;quot;Times New Roman&amp;quot;,serif;mso-fareast-font-family:&lt;br/&gt;&amp;quot;Times New Roman&amp;quot;;mso-fareast-language:ES-SV&quot;&gt;&lt;/span&gt;&lt;p&gt;&lt;/p&gt;" style="text;html=1;align=center;verticalAlign=middle;whiteSpace=wrap;rounded=0;" vertex="1" parent="14">
          <mxGeometry x="10" y="40" width="120" height="70" as="geometry" />
        </mxCell>
        <mxCell id="100" value="" style="endArrow=block;html=1;" parent="1" source="10" target="11" edge="1">
          <mxGeometry relative="1" as="geometry" />
        </mxCell>
        <mxCell id="101" value="" style="endArrow=block;html=1;" parent="1" source="12" target="13" edge="1">
          <mxGeometry relative="1" as="geometry" />
        </mxCell>
        <mxCell id="102" value="" style="endArrow=block;html=1;" parent="1" source="13" target="10" edge="1">
          <mxGeometry relative="1" as="geometry" />
        </mxCell>
        <mxCell id="103" value="" style="endArrow=block;html=1;exitX=0.546;exitY=1.003;exitDx=0;exitDy=0;exitPerimeter=0;" parent="1" source="YsLwNjtkv6gmY2g29hzc-124" target="14" edge="1">
          <mxGeometry relative="1" as="geometry" />
        </mxCell>
        <mxCell id="YsLwNjtkv6gmY2g29hzc-124" value="" style="swimlane;html=1;startSize=0;" vertex="1" parent="1">
          <mxGeometry x="70" y="520" width="240" height="100" as="geometry" />
        </mxCell>
        <mxCell id="YsLwNjtkv6gmY2g29hzc-125" value="&lt;p class=&quot;MsoNormal&quot;&gt;&lt;span style=&quot;font-size: 9pt; line-height: 107%; font-family: Helvetica, sans-serif; background-image: initial; background-position: initial; background-size: initial; background-repeat: initial; background-attachment: initial; background-origin: initial; background-clip: initial;&quot;&gt;generarFactura(): void&lt;/span&gt;&lt;/p&gt;" style="text;html=1;align=center;verticalAlign=middle;whiteSpace=wrap;rounded=0;" vertex="1" parent="YsLwNjtkv6gmY2g29hzc-124">
          <mxGeometry x="20" y="10" width="140" height="30" as="geometry" />
        </mxCell>
        <mxCell id="YsLwNjtkv6gmY2g29hzc-127" value="" style="swimlane;html=1;startSize=0;" vertex="1" parent="1">
          <mxGeometry x="510" y="230" width="240" height="110" as="geometry" />
        </mxCell>
        <mxCell id="YsLwNjtkv6gmY2g29hzc-138" value="&lt;p style=&quot;margin-bottom:0cm;margin-bottom:.0001pt;line-height:&lt;br/&gt;normal&quot; class=&quot;MsoNormal&quot;&gt;&lt;/p&gt;&lt;div style=&quot;text-align: left;&quot;&gt;&lt;span style=&quot;font-family: Helvetica, sans-serif; font-size: 9pt; background-image: initial; background-position: initial; background-size: initial; background-repeat: initial; background-attachment: initial; background-origin: initial; background-clip: initial; line-height: 12.84px;&quot;&gt;registrar(): void&lt;/span&gt;&lt;span style=&quot;font-family: Helvetica, sans-serif; font-size: 9pt; line-height: 12.84px;&quot;&gt;&lt;br&gt;&lt;span style=&quot;background-image: initial; background-position: initial; background-size: initial; background-repeat: initial; background-attachment: initial; background-origin: initial; background-clip: initial;&quot;&gt;modificar(): void&lt;/span&gt;&lt;/span&gt;&lt;/div&gt;&lt;div style=&quot;text-align: left;&quot;&gt;&lt;span style=&quot;font-family: Helvetica, sans-serif; font-size: 9pt; line-height: 12.84px;&quot;&gt;&lt;span style=&quot;background-image: initial; background-position: initial; background-size: initial; background-repeat: initial; background-attachment: initial; background-origin: initial; background-clip: initial;&quot;&gt;mostrarInformacion(): void&lt;/span&gt;&lt;/span&gt;&lt;/div&gt;&lt;div style=&quot;text-align: left;&quot;&gt;&lt;span style=&quot;font-family: Helvetica, sans-serif; font-size: 9pt; line-height: 12.84px;&quot;&gt;&lt;span style=&quot;background-image: initial; background-position: initial; background-size: initial; background-repeat: initial; background-attachment: initial; background-origin: initial; background-clip: initial;&quot;&gt;&lt;br&gt;&lt;/span&gt;&lt;/span&gt;&lt;/div&gt;&lt;p&gt;&lt;/p&gt;" style="text;html=1;align=center;verticalAlign=middle;whiteSpace=wrap;rounded=0;" vertex="1" parent="YsLwNjtkv6gmY2g29hzc-127">
          <mxGeometry x="40" y="10" width="170" height="80" as="geometry" />
        </mxCell>
        <mxCell id="YsLwNjtkv6gmY2g29hzc-130" value="" style="swimlane;html=1;startSize=0;" vertex="1" parent="1">
          <mxGeometry x="540" y="530" width="240" height="110" as="geometry" />
        </mxCell>
        <mxCell id="YsLwNjtkv6gmY2g29hzc-131" value="&lt;p class=&quot;MsoNormal&quot;&gt;&lt;span style=&quot;font-size: 9pt; line-height: 107%; font-family: Helvetica, sans-serif; background-image: initial; background-position: initial; background-size: initial; background-repeat: initial; background-attachment: initial; background-origin: initial; background-clip: initial;&quot;&gt;mostrarDetalle(): void&lt;/span&gt;&lt;/p&gt;&lt;p class=&quot;MsoNormal&quot;&gt;&lt;span style=&quot;font-size: 9pt; line-height: 107%; font-family: Helvetica, sans-serif; background-image: initial; background-position: initial; background-size: initial; background-repeat: initial; background-attachment: initial; background-origin: initial; background-clip: initial;&quot;&gt;modificarDetalles(): void&lt;/span&gt;&lt;/p&gt;" style="text;html=1;align=left;verticalAlign=middle;whiteSpace=wrap;rounded=0;" vertex="1" parent="YsLwNjtkv6gmY2g29hzc-130">
          <mxGeometry x="20" y="10" width="160" height="40" as="geometry" />
        </mxCell>
      </root>
    </mxGraphModel>
  </diagram>
</mxfile>
